<svg id="ae2f768a-bd8a-4c39-ba18-d42d81304273" data-name="Ebene 1" xmlns="http://www.w3.org/2000/svg" viewBox="0 0 1210 1500"><defs><style>.a74545de-31d2-4417-ba86-9e7a0dd1dd98{fill:#fff;}</style></defs><title>titel__01-1</title><path class="a74545de-31d2-4417-ba86-9e7a0dd1dd98" d="M835.55,27.16C817.17,1,751.59,24.92,693,56.6c-37,20-82,34.33-118.1,73.94C481.61,232.86,484.46,284.94,470,313.85S380.24,363,357.62,419.62,322.81,518,290.37,556.68,50.44,974.77,42.86,1041.87,37.51,1194,25.32,1235.68s-41.18,99.48,39.74,183.45,467.58,96.75,712.25-23.62c253.54-124.73,357.9-347.38,357.9-347.38S1289.88,849.24,1120,636.74c-57.84-72.34-112.27-111.91-127.47-177.81s-27-185.75-45.67-270.75-80.32-116.95-111.29-161"/></svg>